<svg width="21" height="20" viewBox="0 0 21 20" fill="none" xmlns="http://www.w3.org/2000/svg">
<path d="M5.83398 7.667C5.83398 6.95967 6.11497 6.28131 6.61513 5.78115C7.11529 5.28099 7.79365 5 8.50098 5H17.167C17.5172 5 17.864 5.06898 18.1876 5.20301C18.5112 5.33704 18.8052 5.53349 19.0528 5.78115C19.3005 6.0288 19.4969 6.32281 19.631 6.64638C19.765 6.96996 19.834 7.31676 19.834 7.667V16.333C19.834 16.6832 19.765 17.03 19.631 17.3536C19.4969 17.6772 19.3005 17.9712 19.0528 18.2189C18.8052 18.4665 18.5112 18.663 18.1876 18.797C17.864 18.931 17.5172 19 17.167 19H8.50098C8.15075 19 7.80394 18.931 7.48037 18.797C7.15679 18.663 6.86278 18.4665 6.61513 18.2189C6.36748 17.9712 6.17103 17.6772 6.037 17.3536C5.90297 17.03 5.83398 16.6832 5.83398 16.333V7.667Z" stroke="black" stroke-opacity="0.5" stroke-width="2" stroke-linecap="round" stroke-linejoin="round"/>
<path d="M2.84598 14.737C2.53898 14.5626 2.28363 14.31 2.10588 14.0049C1.92814 13.6998 1.83432 13.3531 1.83398 13V3C1.83398 1.9 2.73398 1 3.83398 1H13.834C14.584 1 14.992 1.385 15.334 2" stroke="black" stroke-opacity="0.5" stroke-width="2" stroke-linecap="round" stroke-linejoin="round"/>
</svg>
