<svg width="28" height="28" viewBox="0 0 28 28" fill="none" xmlns="http://www.w3.org/2000/svg">
<path d="M13.8843 0.0224688C14.5507 -0.00611941 15.2037 0.216401 15.7144 0.645516L15.8853 0.801766L18.4185 3.33302H21.9995C22.6721 3.33314 23.32 3.58751 23.813 4.04493C24.306 4.50229 24.6072 5.12927 24.6577 5.79981L24.6665 6.00001V9.58106L27.1997 12.1143C27.6715 12.5863 27.9484 13.219 27.9771 13.8857C28.0056 14.5523 27.7834 15.2052 27.354 15.7158L27.1978 15.8857L24.6646 18.419V22C24.6648 22.6728 24.4111 23.3212 23.9536 23.8145C23.4962 24.3077 22.8686 24.6097 22.1978 24.6602L21.9995 24.667H18.4195L15.8862 27.2002C15.4142 27.6719 14.7824 27.9489 14.1157 27.9775C13.449 28.0062 12.7954 27.784 12.2847 27.3545L12.1157 27.2002L9.58254 24.667H5.99953C5.32677 24.6672 4.67838 24.4125 4.18508 23.9551C3.69202 23.4977 3.38986 22.8709 3.33937 22.2002L3.33254 22V18.419L0.799335 15.8857C0.327707 15.4138 0.050738 14.7818 0.0219914 14.1152C-0.00664312 13.4485 0.215516 12.7949 0.645038 12.2842L0.799335 12.1143L3.33254 9.58106V6.00001C3.33267 5.32748 3.58704 4.67955 4.04445 4.18653C4.50181 3.69359 5.1288 3.3923 5.79934 3.3418L5.99953 3.33302H9.58059L12.1138 0.799813C12.5858 0.328445 13.2179 0.0511009 13.8843 0.0224688ZM19.0425 9.60352C18.693 9.60054 18.3564 9.73472 18.105 9.97755L12.4458 15.6357L10.0884 13.2783C9.83832 13.0286 9.4994 12.8886 9.14602 12.8887C8.79232 12.8888 8.45267 13.0291 8.20266 13.2793C7.95268 13.5295 7.81288 13.869 7.81301 14.2227C7.81317 14.5763 7.95354 14.9151 8.20363 15.165L11.4087 18.3711C11.5448 18.5072 11.7066 18.6148 11.8843 18.6885C12.0622 18.7622 12.2533 18.8007 12.4458 18.8008C12.6384 18.8008 12.8294 18.7622 13.0073 18.6885C13.1853 18.6147 13.3477 18.5074 13.4839 18.3711L19.9898 11.8623C20.2326 11.6108 20.3678 11.2744 20.3648 10.9248C20.3617 10.5752 20.2213 10.2404 19.9741 9.99317C19.7269 9.74604 19.392 9.60656 19.0425 9.60352Z" fill="#24A0E9"/>
</svg>
