<svg width="32" height="32" viewBox="0 0 32 32" fill="none" xmlns="http://www.w3.org/2000/svg">
<path fill-rule="evenodd" clip-rule="evenodd" d="M1.94931 3.7272C1.66313 3.41979 1.50734 3.01319 1.51474 2.59306C1.52215 2.17294 1.69218 1.77209 1.98901 1.47498C2.28584 1.17786 2.6863 1.00767 3.10601 1.00025C3.52573 0.99284 3.93194 1.14879 4.23906 1.43524L9.91806 7.11757C11.8773 6.03862 14.1087 5.27535 16.5 5.27535C19.8093 5.27535 22.8076 6.73918 25.2162 8.47545C27.6312 10.216 29.5429 12.3004 30.7007 13.7016L30.7094 13.7124C31.2278 14.3567 31.5 15.1719 31.5 16C31.5 16.8281 31.2278 17.6433 30.7094 18.2876L30.7007 18.3006C29.2585 20.0579 27.6295 21.6529 25.8426 23.0575L31.0507 28.2728C31.3369 28.5802 31.4927 28.9868 31.4853 29.4069C31.4778 29.8271 31.3078 30.2279 31.011 30.525C30.7142 30.8221 30.3137 30.9923 29.894 30.9997C29.4743 31.0072 29.0681 30.8512 28.7609 30.5648L1.94931 3.7272ZM20.857 18.0693C21.2843 17.1693 21.4228 16.159 21.2536 15.177C21.0843 14.1951 20.6155 13.2897 19.9116 12.5851C19.2077 11.8805 18.3032 11.4113 17.3222 11.2418C16.3412 11.0724 15.3319 11.2111 14.4327 11.6388L20.857 18.0693ZM2.30141 13.7016C2.9905 12.8648 3.94744 11.788 5.12039 10.6852L20.466 26.0457C19.1901 26.4882 17.8503 26.7175 16.5 26.7246C13.1907 26.7246 10.1924 25.263 7.78384 23.5267C5.36881 21.784 3.45709 19.6996 2.29925 18.3006L2.29061 18.2876C1.77218 17.6433 1.5 16.8281 1.5 16C1.5 15.1719 1.77218 14.3567 2.29061 13.7124L2.30141 13.7016Z" fill="#24A0E9"/>
</svg>
