<svg width="33" height="32" viewBox="0 0 33 32" fill="none" xmlns="http://www.w3.org/2000/svg">
<path d="M3.7 7.2C3.7 5.435 5.135 4 6.9 4H21.3C23.065 4 24.5 5.435 24.5 7.2V8.8H27.035C27.885 8.8 28.7 9.135 29.3 9.735L31.565 12C32.165 12.6 32.5 13.415 32.5 14.265V21.6C32.5 23.365 31.065 24.8 29.3 24.8H29.135C28.615 26.645 26.915 28 24.9 28C22.885 28 21.19 26.645 20.665 24.8H15.535C15.015 26.645 13.315 28 11.3 28C9.285 28 7.59 26.645 7.065 24.8H6.9C5.135 24.8 3.7 23.365 3.7 21.6V19.2H1.7C1.035 19.2 0.5 18.665 0.5 18C0.5 17.335 1.035 16.8 1.7 16.8H7.3C7.965 16.8 8.5 16.265 8.5 15.6C8.5 14.935 7.965 14.4 7.3 14.4H1.7C1.035 14.4 0.5 13.865 0.5 13.2C0.5 12.535 1.035 12 1.7 12H10.5C11.165 12 11.7 11.465 11.7 10.8C11.7 10.135 11.165 9.6 10.5 9.6H1.7C1.035 9.6 0.5 9.065 0.5 8.4C0.5 7.735 1.035 7.2 1.7 7.2H3.7ZM29.3 16.8V14.265L27.035 12H24.5V16.8H29.3ZM13.3 23.6C13.3 23.0696 13.0893 22.5609 12.7142 22.1858C12.3391 21.8107 11.8304 21.6 11.3 21.6C10.7696 21.6 10.2609 21.8107 9.88579 22.1858C9.51071 22.5609 9.3 23.0696 9.3 23.6C9.3 24.1304 9.51071 24.6391 9.88579 25.0142C10.2609 25.3893 10.7696 25.6 11.3 25.6C11.8304 25.6 12.3391 25.3893 12.7142 25.0142C13.0893 24.6391 13.3 24.1304 13.3 23.6ZM24.9 25.6C25.4304 25.6 25.9391 25.3893 26.3142 25.0142C26.6893 24.6391 26.9 24.1304 26.9 23.6C26.9 23.0696 26.6893 22.5609 26.3142 22.1858C25.9391 21.8107 25.4304 21.6 24.9 21.6C24.3696 21.6 23.8609 21.8107 23.4858 22.1858C23.1107 22.5609 22.9 23.0696 22.9 23.6C22.9 24.1304 23.1107 24.6391 23.4858 25.0142C23.8609 25.3893 24.3696 25.6 24.9 25.6Z" fill="#24A0E9"/>
</svg>
