<svg width="33" height="32" viewBox="0 0 33 32" fill="none" xmlns="http://www.w3.org/2000/svg">
<path d="M18.0634 0V3.23686C25.1048 4.10215 30.0932 10.4957 29.227 17.5303C28.4892 23.363 23.9019 27.994 18.0634 28.683V31.8878C26.8852 31.0065 33.3011 23.1868 32.4189 14.3736C31.6971 6.76214 25.6502 0.75313 18.0634 0ZM14.8555 0.0480721C11.7278 0.352529 8.74438 1.55433 6.30635 3.57336L8.60002 5.94492C10.3965 4.50275 12.5618 3.57336 14.8555 3.25288V0.0480721ZM4.04476 5.83275C2.04052 8.26491 0.806507 11.2381 0.5 14.3736H3.70793C4.01268 12.0981 4.9109 9.9349 6.33843 8.12419L4.04476 5.83275ZM0.51604 17.5784C0.836833 20.7191 2.07189 23.6835 4.0608 26.1192L6.33843 23.8277C4.92188 22.0165 4.01887 19.858 3.72397 17.5784H0.51604ZM8.60002 26.1833L6.30635 28.3786C8.73631 30.4014 11.7107 31.6614 14.8555 32V28.7952C12.5736 28.5006 10.4131 27.5984 8.60002 26.1833ZM24.1906 21.0876L17.5983 14.5018C18.2559 12.8353 17.887 10.8803 16.5076 9.51828C15.064 8.06009 12.8987 7.77166 11.1503 8.57286L14.262 11.6815L12.0967 13.8608L8.90478 10.7361C8.03864 12.4827 8.43963 14.646 9.85112 16.1042C11.2305 17.4822 13.1874 17.8348 14.8555 17.1938L21.4478 23.7636C21.7365 24.0681 22.1696 24.0681 22.4583 23.7636L24.1264 22.1132C24.4793 21.8247 24.4793 21.312 24.1906 21.0876Z" fill="#24A0E9"/>
</svg>
