<svg width="24" height="25" viewBox="0 0 24 25" fill="none" xmlns="http://www.w3.org/2000/svg">
<path d="M12.79 21.5L3 11.71V13.71C3 14.24 3.21 14.75 3.59 15.12L11.38 22.91C12.16 23.69 13.43 23.69 14.21 22.91L20.42 16.7C21.2 15.92 21.2 14.65 20.42 13.87L12.79 21.5Z" fill="white"/>
<path d="M11.38 17.91C12.16 18.69 13.43 18.69 14.21 17.91L20.42 11.7C21.2 10.92 21.2 9.65 20.42 8.87L12.63 1.08C12.2501 0.709302 11.7408 0.501245 11.21 0.5L5 0.5C3.9 0.5 3 1.4 3 2.5V8.71C3 9.24 3.21 9.75 3.59 10.12L11.38 17.91ZM7.25 3.5C7.58152 3.5 7.89946 3.6317 8.13388 3.86612C8.3683 4.10054 8.5 4.41848 8.5 4.75C8.5 5.08152 8.3683 5.39946 8.13388 5.63388C7.89946 5.8683 7.58152 6 7.25 6C6.91848 6 6.60054 5.8683 6.36612 5.63388C6.1317 5.39946 6 5.08152 6 4.75C6 4.41848 6.1317 4.10054 6.36612 3.86612C6.60054 3.6317 6.91848 3.5 7.25 3.5Z" fill="white"/>
</svg>
